:SAMPLES-PER-SECOND 30
:FRAME-RANGE 1-1700
:FULLY-SPECIFIED
:DEGREES
797
root  -1.26941 38.7117 34.6431 159.655 -84.192 -170.208
RightUpLeg  -0.142389 -20.5021 -0.173214
RightLeg  27.3105 -19.2793 -10.7037
RightFoot  -15.8516 -0.074632 0.82909
RightToes  -1.16417e-010 0 -3.6325e-017
Spine  18.5809 1.80277 1.57554
Spine1  -2.5672 -1.75683 1.33309
HEad  -7.57817 43.8342 -25.0573
LeftShoulder1  2.77391 -4.56542 -28.3187
LeftArm  101.84 -32.3313 -88.6011
LeftForeArm  -23.5389 -21.6136 -8.13525
LeftHand  0.0240316 3.11106 -2.17033
RightShoulder  14.1881 24.7394 43.6422
RightArm  32.9241 7.86866 20.7636
RightForeArm  22.173 30.0014 5.30328
RightHand  1.63131 7.80616 13.8617
LeftUpLeg  -109.936 26.5571 -81.1615
LeftLeg  125.875 -1.60502 1.59609
LeftFoot  11.308 1.11248 -5.89821
LeftToes  1.03528e-008 1.55373e-010 -2.26046e-010
798
root  -1.06294 39.6953 35.4573 -153.456 -88.8859 143.893
RightUpLeg  1.79565 -5.2658 1.19311
RightLeg  17.6866 -20.0913 -7.12579
RightFoot  -14.3552 -0.0475846 1.88663
RightToes  -1.16417e-010 0 -3.6325e-017
Spine  18.8517 1.63447 0.673119
Spine1  -3.51743 -1.81322 0.519484
HEad  -5.84393 41.8895 -24.0121
LeftShoulder1  2.78458 -4.71159 -27.8244
LeftArm  104.159 -32.7992 -89.1686
LeftForeArm  -25.7348 -22.1367 -7.68146
LeftHand  0.0372938 3.07491 -2.81513
RightShoulder  14.3039 24.9865 43.6082
RightArm  33.6999 8.6819 21.1156
RightForeArm  20.9135 28.5077 5.026
RightHand  1.6954 8.34493 13.8275
LeftUpLeg  -108.469 23.2883 -80.5185
LeftLeg  123.74 -2.54997 3.0528
LeftFoot  10.5479 1.34129 -7.26403
LeftToes  1.03528e-008 1.55373e-010 -2.26046e-010
799
root  -0.817645 40.1451 36.097 -17.1767 -84.7162 7.92129
RightUpLeg  1.73597 7.49799 6.42704
RightLeg  15.097 -10.783 -7.04323
RightFoot  -15.0993 -0.113532 -0.347022
RightToes  -1.16417e-010 0 -3.6325e-017
Spine  19.7929 1.22012 -1.18069
Spine1  -3.1852 -2.82915 2.46723
HEad  -7.2881 39.8933 -24.5789
LeftShoulder1  2.87711 -4.99805 -27.7708
LeftArm  102.982 -34.0325 -90.7321
LeftForeArm  -24.1809 -21.6614 -8.12407
LeftHand  0.0175847 3.40279 -2.21183
RightShoulder  14.0183 25.0999 42.4932
RightArm  33.3068 9.95861 21.2002
RightForeArm  20.4016 27.7777 4.88784
RightHand  1.66328 8.46447 13.439
LeftUpLeg  -105.659 21.4526 -79.5061
LeftLeg  121.59 -2.51385 3.27028
LeftFoot  10.4455 1.54082 -8.32874
LeftToes  1.03528e-008 1.55373e-010 -2.26046e-010
800
root  -0.492587 40.0903 36.676 -11.3718 -78.2651 2.19266
RightUpLeg  -0.879716 19.9488 10.1394
RightLeg  18.7401 -9.869 -4.67595
RightFoot  -14.6034 -0.0548171 1.54739
RightToes  -1.16417e-010 0 -3.6325e-017
Spine  21.2403 0.5068 -3.28602
Spine1  -2.22349 -4.25589 4.78103
HEad  -9.16148 38.3945 -24.6155
LeftShoulder1  2.96925 -5.3521 -27.4506
LeftArm  99.232 -35.4452 -92.5234
LeftForeArm  -20.2316 -20.4915 -9.27866
LeftHand  -0.00437872 3.85653 -1.34505
RightShoulder  13.8409 25.4149 41.4096
RightArm  32.8321 11.4304 21.0316
RightForeArm  19.9294 27.3896 4.8261
RightHand  1.65461 8.58463 13.2478
LeftUpLeg  -102.489 20.5834 -79.1522
LeftLeg  119.598 -2.53629 3.58163
LeftFoot  11.5838 1.75613 -8.99808
LeftToes  1.03528e-008 1.55373e-010 -2.26046e-010
801
root  -0.210941 39.7267 37.2403 -9.92123 -71.7143 1.01865
RightUpLeg  -4.33046 18.5052 11.9183
RightLeg  21.2574 -12.4227 -5.484
RightFoot  -13.8182 -0.041402 2.4151
RightToes  -1.16417e-010 0 -3.6325e-017
Spine  21.7976 -0.292976 -5.59548
Spine1  -0.29662 -5.77354 7.22176
HEad  -9.04444 37.1251 -23.5732
LeftShoulder1  3.03606 -5.67165 -26.9979
LeftArm  93.5884 -36.9389 -93.7183
LeftForeArm  -15.193 -18.8973 -10.8565
LeftHand  -0.00891861 3.97961 -1.13054
RightShoulder  13.6923 25.7817 40.3535
RightArm  32.9835 12.6592 21.4066
RightForeArm  19.9278 27.1434 4.77097
RightHand  1.64913 8.58421 13.2034
LeftUpLeg  -99.374 20.8956 -79.0068
LeftLeg  118.433 -2.21342 3.20998
LeftFoot  13.1005 2.06352 -9.88144
LeftToes  1.03528e-008 1.55373e-010 -2.26046e-010
802
root  -0.136008 38.9562 37.8222 -9.591 -65.7575 0.629092
RightUpLeg  -6.00438 12.5966 13.0631
RightLeg  20.1723 -10.0094 -4.25605
RightFoot  -12.214 -0.0463637 4.79451
RightToes  -1.16417e-010 0 -3.6325e-017
Spine  21.6573 -0.78306 -6.17639
Spine1  1.40635 -6.69555 8.2003
HEad  -7.11041 35.5502 -22.9253
LeftShoulder1  3.09837 -5.78721 -27.2662
LeftArm  90.7576 -37.6471 -94.033
LeftForeArm  -12.5579 -18.1151 -11.5702
LeftHand  -0.00817632 3.89381 -1.08273
RightShoulder  13.5566 25.8563 39.7993
RightArm  32.8783 12.737 21.0253
RightForeArm  20.3872 27.8456 4.90399
RightHand  1.64228 8.43016 13.3005
LeftUpLeg  -97.4197 21.9078 -78.5219
LeftLeg  118.842 -1.62886 2.17834
LeftFoot  14.4609 2.37406 -10.7305
LeftToes  1.03528e-008 1.55373e-010 -2.26046e-010
